<?xml version="1.0" encoding="UTF-8" standalone="no"?>
<svg
   version="1.1"
   viewBox="0 0 1200 1200"
   id="svg109"
   sodipodi:docname="logo.svg"
   inkscape:version="1.2.1 (8a69933317, 2022-10-28, custom)"
   xmlns:inkscape="http://www.inkscape.org/namespaces/inkscape"
   xmlns:sodipodi="http://sodipodi.sourceforge.net/DTD/sodipodi-0.dtd"
   xmlns:xlink="http://www.w3.org/1999/xlink"
   xmlns="http://www.w3.org/2000/svg"
   xmlns:svg="http://www.w3.org/2000/svg">
  <sodipodi:namedview
     id="namedview111"
     pagecolor="#505050"
     bordercolor="#eeeeee"
     borderopacity="1"
     inkscape:showpageshadow="0"
     inkscape:pageopacity="0"
     inkscape:pagecheckerboard="0"
     inkscape:deskcolor="#505050"
     showgrid="false"
     inkscape:zoom="0.65666667"
     inkscape:cx="303.04569"
     inkscape:cy="600.76142"
     inkscape:window-width="1852"
     inkscape:window-height="1016"
     inkscape:window-x="0"
     inkscape:window-y="0"
     inkscape:window-maximized="1"
     inkscape:current-layer="svg109" />
  <defs
     id="defs97">
    <linearGradient
       id="t"
       x1="50%"
       x2="0%"
       y1="100%"
       y2="100%">
      <stop
         stop-color="#1464c8"
         offset="0"
         id="stop18" />
      <stop
         stop-color="#5ac8fa"
         offset="1"
         id="stop20" />
    </linearGradient>
    <linearGradient
       id="u"
       x1="50%"
       x2="0%"
       y1="100%"
       y2="100%">
      <stop
         stop-color="#c81414"
         offset="0"
         id="stop23" />
      <stop
         stop-color="#fa6450"
         offset="1"
         id="stop25" />
    </linearGradient>
    <linearGradient
       id="v"
       x1="50%"
       x2="0%"
       y1="100%"
       y2="100%">
      <stop
         stop-color="#14c828"
         offset="0"
         id="stop28" />
      <stop
         stop-color="#5aff78"
         offset="1"
         id="stop30" />
    </linearGradient>
    <g
       id="w">
      <path
         d="m200 11.5v-23l-290.04-167.46-1e-3 297.92 19.919-11.5v-251.92z"
         fill="url(#t)"
         stroke-width="0"
         id="path33" />
    </g>
    <g
       id="z">
      <path
         d="m200 20v-40l-282.68-163.21v269.42l34.642-20.005v-189.42z"
         fill="url(#t)"
         stroke-width="0"
         id="path36" />
    </g>
    <g
       id="ac">
      <path
         d="m200 26.5v-53l-277.05-159.96v249.92l45.899-26.505v-143.92z"
         fill="url(#t)"
         stroke-width="0"
         id="path39" />
    </g>
    <g
       id="af">
      <path
         d="m200 34v-68l-270.56-156.21 5e-3 227.42 58.89-34.005v-91.41z"
         fill="url(#t)"
         stroke-width="0"
         id="path42" />
    </g>
    <g
       id="x">
      <path
         d="m200 11.5v-23l-290.04-167.46-1e-3 297.92 19.919-11.5v-251.92z"
         fill="url(#u)"
         stroke-width="0"
         id="path45" />
    </g>
    <g
       id="aa">
      <path
         d="m200 20v-40l-282.68-163.21v269.42l34.642-20.005v-189.42z"
         fill="url(#u)"
         stroke-width="0"
         id="path48" />
    </g>
    <g
       id="ad">
      <path
         d="m200 26.5v-53l-277.05-159.96v249.92l45.899-26.505v-143.92z"
         fill="url(#u)"
         stroke-width="0"
         id="path51" />
    </g>
    <g
       id="ag">
      <path
         d="m200 34v-68l-270.56-156.21 5e-3 227.42 58.89-34.005v-91.41z"
         fill="url(#u)"
         stroke-width="0"
         id="path54" />
    </g>
    <g
       id="y">
      <path
         d="m200 11.5v-23l-290.04-167.46-1e-3 297.92 19.919-11.5v-251.92z"
         fill="url(#v)"
         stroke-width="0"
         id="path57" />
    </g>
    <g
       id="ab">
      <path
         d="m200 20v-40l-282.68-163.21v269.42l34.642-20.005v-189.42z"
         fill="url(#v)"
         stroke-width="0"
         id="path60" />
    </g>
    <g
       id="ae">
      <path
         d="m200 26.5v-53l-277.05-159.96v249.92l45.899-26.505v-143.92z"
         fill="url(#v)"
         stroke-width="0"
         id="path63" />
    </g>
    <g
       id="ah">
      <path
         d="m200 34v-68l-270.56-156.21 5e-3 227.42 58.89-34.005v-91.41z"
         fill="url(#v)"
         stroke-width="0"
         id="path66" />
    </g>
    <g
       id="ai">
      <use
         transform="rotate(150) translate(4)"
         xlink:href="#w"
         id="use69" />
      <use
         transform="rotate(-90) translate(4)"
         xlink:href="#x"
         id="use71" />
      <use
         transform="rotate(30) translate(4)"
         xlink:href="#y"
         id="use73" />
    </g>
    <g
       id="aj">
      <use
         transform="rotate(150) translate(5)"
         xlink:href="#z"
         id="use76" />
      <use
         transform="rotate(-90) translate(5)"
         xlink:href="#aa"
         id="use78" />
      <use
         transform="rotate(30) translate(5)"
         xlink:href="#ab"
         id="use80" />
    </g>
    <g
       id="ak">
      <use
         transform="rotate(30) translate(5)"
         xlink:href="#ac"
         id="use83" />
      <use
         transform="rotate(150) translate(5)"
         xlink:href="#ad"
         id="use85" />
      <use
         transform="rotate(-90) translate(5)"
         xlink:href="#ae"
         id="use87" />
    </g>
    <g
       id="al">
      <use
         transform="rotate(150) translate(5)"
         xlink:href="#af"
         id="use90" />
      <use
         transform="rotate(-90) translate(5)"
         xlink:href="#ag"
         id="use92" />
      <use
         transform="rotate(30) translate(5)"
         xlink:href="#ah"
         id="use94" />
    </g>
  </defs>
  <use
     transform="matrix(2.7104762,0,0,3.1357347,601.91546,709.08298)"
     xlink:href="#al"
     id="use101"
     style="fill:#e9c46a;fill-opacity:1" />
  <path
     style="fill:#e9c46a;fill-opacity:1;stroke-width:1.52284"
     d="m 813.96913,674.63925 -5.65095,-11.59035 45.65905,-91.29602 45.65906,-91.29603 5.67473,11.45644 5.67474,11.45643 -45.68284,91.42995 -45.68285,91.42995 z"
     id="path1908" />
  <path
     style="fill:#e9c46a;fill-opacity:1;stroke-width:1.52284"
     d="m 802.10639,650.69537 -5.36883,-10.17026 45.73788,-91.45544 45.73788,-91.45546 5.48337,11.07849 5.48338,11.0785 -44.8946,89.92825 c -24.69204,49.46053 -45.32563,90.20679 -45.85243,90.54722 -0.5268,0.34043 -3.37379,-3.95765 -6.32665,-9.5513 z"
     id="path1910" />
  <path
     style="fill:#e9c46a;fill-opacity:1;stroke-width:1.52284"
     d="m 760.67265,566.44987 -5.68091,-11.46891 45.54992,-91.08971 45.54992,-91.08972 5.67751,11.48765 5.6775,11.48766 -45.54651,91.07097 -45.54652,91.07097 z"
     id="path1912" />
  <path
     style="fill:#e9c46a;fill-opacity:1;stroke-width:1.52284"
     d="m 792.42306,630.83756 -3.06446,-7.2335 45.03555,-90.22843 c 24.76955,-49.62563 45.41564,-90.22842 45.88019,-90.22842 0.46456,0 2.34687,3.09202 4.18291,6.87116 l 3.33827,6.87115 -45.28774,90.59078 c -24.90825,49.82492 -45.67755,90.59077 -46.154,90.59077 -0.47644,0 -2.24527,-3.25508 -3.93072,-7.23351 z"
     id="path1914" />
  <path
     style="fill:#e9c46a;fill-opacity:1;stroke-width:1.52284"
     d="m 779.67714,605.28917 c -2.50263,-5.57789 -4.55024,-10.7653 -4.55024,-11.52757 0,-0.76228 20.30486,-41.98647 45.12191,-91.60932 l 45.12191,-90.22335 5.48335,11.0785 5.48336,11.07849 -44.8946,89.92825 c -24.69204,49.46053 -45.4168,90.26313 -46.05503,90.67243 -0.63824,0.40931 -3.20803,-3.81953 -5.71066,-9.39743 z"
     id="path1916" />
  <path
     style="fill:#e9c46a;fill-opacity:1;stroke-width:1.52284"
     d="m 770.65028,587.24569 c -1.72567,-3.56478 -3.13759,-7.29524 -3.13759,-8.28994 0,-0.99469 20.29523,-42.39442 45.10051,-91.99937 l 45.10051,-90.19083 3.63415,7.15081 3.63414,7.15082 -45.59706,91.32995 -45.59707,91.32995 z"
     id="path1918" />
  <path
     style="fill:#e9c46a;fill-opacity:1;stroke-width:1.52284"
     d="m 786.08867,619.08991 c -1.12629,-2.47192 -1.18878,-4.07476 -0.18311,-4.69631 0.83971,-0.51897 21.61526,-41.11599 46.1679,-90.21562 37.9519,-75.89508 44.88275,-88.82061 46.2535,-86.25933 1.35473,2.53132 -5.67232,17.54596 -43.97843,93.96835 -25.07494,50.0256 -45.80662,90.95564 -46.0704,90.95564 -0.26378,0 -1.24904,-1.68873 -2.18946,-3.75273 z"
     id="path1920" />
  <path
     style="fill:#e9c46a;fill-opacity:1;stroke-width:1.52284"
     d="m 814.33745,673.85053 -5.35251,-10.61718 29.51768,-59.02022 c 16.23473,-32.46113 29.48986,-59.88026 29.45585,-60.9314 -0.034,-1.05115 -13.22563,24.07711 -29.31472,55.84058 -16.08909,31.76345 -29.93817,57.70203 -30.77573,57.64128 -0.83756,-0.0608 -3.50551,-3.77747 -5.92878,-8.25936 l -4.40593,-8.1489 29.23935,-58.41531 c 16.08164,-32.12844 28.92839,-58.72628 28.54834,-59.10633 -0.38006,-0.38006 -13.56237,24.70759 -29.29403,55.75035 -15.73166,31.04273 -29.06146,56.44134 -29.62178,56.44134 -0.56032,0 -2.20637,-2.63363 -3.65789,-5.85253 l -2.63912,-5.85251 27.62211,-55.22764 c 15.19215,-30.37518 27.3093,-55.54042 26.92698,-55.92274 -0.38231,-0.38231 -13.22686,24.04951 -28.54343,54.29293 -18.60182,36.73033 -28.24441,54.28025 -29.04126,52.85636 -0.77844,-1.39099 8.36752,-21.02754 26.32217,-56.51418 15.13331,-29.91039 27.16849,-54.72913 26.74485,-55.15278 -0.42364,-0.42364 -12.94957,23.33714 -27.83539,52.80174 l -27.06514,53.57199 -4.22282,-8.15514 c -2.32255,-4.48532 -4.25515,-9.44137 -4.29466,-11.01343 -0.0395,-1.57204 10.555,-24.46678 23.54336,-50.87718 12.98836,-26.41039 23.30704,-48.32706 22.93041,-48.7037 -0.37664,-0.37664 -11.59409,21.12526 -24.92767,47.782 l -24.24287,48.46678 -2.49464,-4.82411 c -1.37206,-2.65326 -2.49465,-5.87491 -2.49465,-7.15923 0,-1.28432 9.59585,-21.98899 21.32411,-46.01039 11.72826,-24.02141 21.01917,-43.98022 20.64647,-44.35292 -0.3727,-0.3727 -10.56475,19.08717 -22.649,43.24415 l -21.97135,43.92181 -5.34771,-10.63426 -5.34771,-10.63426 45.1696,-90.31378 45.16958,-90.31378 5.23488,10.82101 5.23486,10.82102 -22.49438,45.01958 c -12.37192,24.76077 -22.15431,45.35966 -21.73866,45.77532 0.41565,0.41564 10.82339,-19.3633 23.12831,-43.95322 l 22.37259,-44.70894 3.17549,6.54051 3.17549,6.54052 -20.21218,40.45864 c -11.1167,22.25225 -19.87239,40.79843 -19.45709,41.21373 0.4153,0.4153 9.78563,-17.29571 20.82296,-39.35779 l 20.06787,-40.11287 5.16108,10.23745 5.16107,10.23744 -17.61521,35.2049 c -9.68837,19.36269 -17.30899,35.51113 -16.93471,35.8854 0.37428,0.37428 7.69089,-12.89157 16.25915,-29.47965 8.56826,-16.58809 16.18274,-30.81117 16.92107,-31.60686 3.63015,-3.91218 0.0858,4.65764 -13.89488,33.59554 -8.38051,17.34646 -14.96338,31.81293 -14.62861,32.14771 0.33478,0.33477 8.32857,-14.30854 17.76398,-32.54068 l 17.15529,-33.14936 3.13452,6.4719 3.13452,6.4719 -15.64101,31.32627 c -8.60255,17.22944 -15.30204,31.66522 -14.88775,32.07951 0.41429,0.41429 7.72883,-13.18462 16.25454,-30.2198 l 15.50128,-30.97305 5.16087,10.23705 5.16087,10.23704 -14.48129,28.9321 c -7.96471,15.91266 -14.44479,29.79555 -14.40019,30.85088 0.0446,1.05533 6.80891,-11.43147 15.03177,-27.74844 l 14.95066,-29.66721 5.34641,10.63168 5.34641,10.63168 -45.30477,90.5841 -45.30477,90.58412 z"
     id="path1922" />
  <path
     style="fill:#e9c46a;fill-opacity:1;stroke-width:1.52284"
     d="M 928.25205,902.66497 C 868.83347,783.52157 817.67739,680.93574 814.57186,674.69645 l -5.64641,-11.34416 29.63458,-59.25395 c 16.29902,-32.58969 29.30635,-59.58221 28.90518,-59.98339 -0.40118,-0.40118 -13.63202,24.85783 -29.40188,56.13113 -15.76986,31.27328 -29.34773,56.7769 -30.17306,56.6747 -0.82533,-0.10218 -3.49359,-3.87123 -5.92948,-8.37563 l -4.4289,-8.18982 21.62676,-43.18597 c 11.89471,-23.7523 21.3177,-43.49504 20.93998,-43.87277 -0.37773,-0.37772 -10.152,17.85673 -21.7206,40.521 -11.5686,22.66429 -21.47433,41.20779 -22.01272,41.20779 -0.53839,0 -2.16477,-2.62981 -3.61418,-5.84401 l -2.63528,-5.84402 27.59894,-55.25546 c 15.17942,-30.3905 27.29484,-55.55958 26.92315,-55.93126 -0.37168,-0.37168 -13.20753,24.06884 -28.5241,54.31226 -18.60182,36.73033 -28.24441,54.28025 -29.04126,52.85636 -0.77844,-1.39099 8.36752,-21.02754 26.32217,-56.51418 15.13331,-29.91039 27.17714,-54.72049 26.76406,-55.13357 -0.41307,-0.41307 -12.93578,23.35407 -27.82823,52.81587 l -27.07719,53.56691 -4.22998,-8.16927 c -2.32649,-4.4931 -4.26231,-9.48478 -4.30182,-11.09261 -0.0395,-1.60784 10.55752,-24.50004 23.54897,-50.87157 12.99145,-26.37154 23.31013,-48.25893 22.93041,-48.63865 -0.37973,-0.37972 -11.5997,21.11965 -24.93328,47.77639 l -24.24287,48.46678 -2.49464,-4.82411 c -1.37206,-2.65326 -2.49465,-5.8909 -2.49465,-7.19474 0,-1.30386 8.22529,-19.26743 18.27842,-39.91904 10.05313,-20.65162 17.97373,-37.85308 17.60134,-38.22547 -0.37239,-0.37239 -9.16758,16.29305 -19.54487,37.03433 l -18.86778,37.71141 -9.23386,-17.32005 -9.23385,-17.32006 16.59167,-33.15712 c 9.12542,-18.23641 16.59167,-33.50571 16.59167,-33.93178 0,-0.42607 -2.12915,-0.77466 -4.73145,-0.77466 -3.60133,0 -4.51067,-0.5456 -3.80711,-2.28426 l 1.8487,-4.56853 c 0.7423,-1.83439 -0.46243,-2.28426 -6.11702,-2.28426 h -7.04138 l 3.83276,-7.56359 c 2.10802,-4.15998 3.83276,-7.92901 3.83276,-8.37564 0,-0.44662 -2.39847,-0.81204 -5.32995,-0.81204 -2.93147,0 -5.29263,-0.51396 -5.24702,-1.14214 0.0456,-0.62817 13.97096,-28.81814 30.94522,-62.64439 l 30.8623,-61.50225 3.31874,5.62483 c 1.8253,3.09366 3.31873,6.13389 3.31873,6.75607 0,0.62217 0.8566,1.98783 1.90356,3.03478 1.04695,1.04695 1.96362,2.38325 2.03705,2.96954 0.0734,0.5863 3.43293,7.87589 7.46557,16.1991 l 7.33208,15.13312 -45.15593,90.32711 c -24.83576,49.67992 -45.11837,90.83957 -45.07247,91.46588 0.0459,0.62632 20.45331,-39.50245 45.34979,-89.17503 l 45.26632,-90.31378 5.23488,10.82102 5.23486,10.82101 -22.49438,45.01958 c -12.37192,24.76077 -22.15431,45.35967 -21.73866,45.77531 0.41565,0.41566 10.82339,-19.36329 23.12831,-43.95321 l 22.37259,-44.70894 3.17549,6.54051 3.17549,6.54052 -20.21218,40.45864 c -11.1167,22.25225 -19.87239,40.79844 -19.45709,41.21373 0.4153,0.4153 9.78563,-17.2957 20.82296,-39.35779 l 20.06787,-40.11287 5.16108,10.23745 5.16107,10.23744 -17.61521,35.2049 c -9.68837,19.36269 -17.31042,35.50969 -16.9379,35.88221 0.37253,0.37253 7.67982,-12.89331 16.23843,-29.47964 8.55861,-16.58634 16.17452,-30.80799 16.92425,-31.60368 3.68954,-3.91571 0.10052,4.79469 -13.87072,33.66357 -8.37862,17.31281 -14.96663,31.74508 -14.64001,32.0717 0.32663,0.32662 7.93542,-13.66205 16.90843,-31.08594 8.97301,-17.42388 16.81725,-32.21647 17.43163,-32.87243 0.61439,-0.65595 2.39161,1.6338 3.94939,5.08834 l 2.83233,6.28098 -15.60376,31.25166 c -8.58206,17.18841 -15.26479,31.59063 -14.8505,32.0049 0.41429,0.41429 7.72883,-13.18462 16.25454,-30.21979 l 15.50128,-30.97305 5.16087,10.23705 5.16087,10.23704 -14.57103,29.11139 c -8.01407,16.01127 -14.22848,29.45395 -13.80979,29.87263 0.41868,0.41869 7.19773,-12.09746 15.06455,-27.81367 l 14.30331,-28.57491 9.22415,17.37042 c 5.07329,9.55373 56.58321,112.10902 114.46648,227.90062 l 105.2424,210.53021 -45.2983,90.61191 c -24.9141,49.8366 -45.6456,90.6119 -46.07,90.6119 -0.4244,0 -49.38687,-97.4809 -108.80545,-216.62433 z M 849.06452,537.40466 c 3.8297,-7.62539 6.62046,-14.20699 6.20168,-14.62577 -0.67812,-0.67812 -14.65706,25.7387 -14.65706,27.6983 0,2.72974 2.32196,-0.86016 8.45538,-13.07253 z m -39.1414,-44.00084 c 0.87646,-2.51423 1.30418,-4.57133 0.95048,-4.57133 -0.74137,0 -5.28984,8.52347 -5.28984,9.91273 0,2.34434 2.90786,-1.235 4.33936,-5.3414 z"
     id="path1924" />
  <path
     style="fill:#e9c46a;fill-opacity:1;stroke-width:1.52284"
     d="m 922.80591,889.39224 -113.4885,-226.83088 20.30274,-40.58319 c 11.16651,-22.32076 19.98002,-40.90592 19.58558,-41.30036 -0.39444,-0.39443 -9.51415,16.64068 -20.26601,37.85581 -10.75187,21.21515 -20.22412,38.48936 -21.04945,38.38716 -0.82533,-0.10218 -3.49379,-3.87123 -5.92993,-8.37563 l -4.42934,-8.18982 18.58209,-37.09404 c 10.22014,-20.40172 18.27268,-37.40344 17.89452,-37.7816 -0.37816,-0.37816 -8.78237,15.11492 -18.67603,34.42906 -9.89366,19.31415 -18.42872,35.11663 -18.96681,35.11663 -0.53809,0 -2.16598,-2.63369 -3.61753,-5.85265 l -2.63917,-5.85265 26.86082,-53.70458 c 14.77345,-29.53752 26.55818,-54.00721 26.1883,-54.37709 -0.36988,-0.36988 -12.87066,23.37868 -27.77952,52.7746 -18.19924,35.88359 -27.50082,52.7434 -28.30541,51.30567 -0.78549,-1.40359 8.02123,-20.35248 25.55942,-54.9947 14.71681,-29.06928 26.41205,-53.19904 25.98941,-53.62168 -0.42263,-0.42263 -12.11769,21.72361 -25.98902,49.21388 -13.87132,27.49026 -25.82659,50.8853 -26.56725,51.98898 -0.96455,1.4373 -2.49131,-0.4109 -5.38086,-6.51372 -2.21882,-4.68621 -4.03421,-9.58645 -4.03421,-10.88942 0,-1.30297 6.5138,-15.78566 14.47511,-32.18376 7.96132,-16.3981 14.16918,-30.12067 13.79525,-30.4946 -0.37394,-0.37393 -7.47899,12.90474 -15.78901,29.50815 l -15.10914,30.18803 -2.49321,-4.82135 c -1.37127,-2.65174 -2.49322,-5.88876 -2.49322,-7.19338 0,-1.30462 7.26513,-17.27139 16.14474,-35.48171 18.04135,-36.99929 20.78934,-43.00817 19.66852,-43.00817 -0.42671,0 -9.25565,16.94875 -19.61985,37.66389 l -18.84401,37.66389 -5.39293,-10.70892 -5.39293,-10.70892 12.8579,-25.43213 c 7.07184,-13.98767 12.29008,-25.43213 11.59609,-25.43213 -0.694,0 -6.36929,10.58087 -12.61175,23.51304 -6.24247,12.93217 -11.87499,23.55399 -12.51671,23.60407 -0.64172,0.0501 -2.25058,-2.18177 -3.57524,-4.9596 l -2.40847,-5.05061 12.42225,-24.80796 c 6.83223,-13.64438 12.17974,-25.05047 11.88334,-25.34687 -0.29639,-0.2964 -5.97363,10.39884 -12.61608,23.76721 -6.64245,13.36835 -12.4717,24.3061 -12.9539,24.3061 -0.48219,0 -2.38141,-3.09712 -4.22049,-6.88251 l -3.34378,-6.88251 11.41597,-22.79389 c 6.27878,-12.53663 11.41596,-23.14509 11.41596,-23.57433 0,-0.42926 -3.43794,-0.78046 -7.63986,-0.78046 h -7.63987 l 3.83276,-7.5636 c 2.10802,-4.15996 3.83276,-7.929 3.83276,-8.37563 0,-0.44662 -2.12916,-0.81204 -4.73146,-0.81204 -3.185,0 -4.47708,-0.62217 -3.9532,-1.90355 3.08122,-7.53641 3.22217,-7.23351 -3.3661,-7.23351 h -6.28525 l 3.07663,-6.0307 c 1.69215,-3.31688 3.07664,-6.40064 3.07664,-6.85279 0,-0.45215 -2.74112,-0.82209 -6.09137,-0.82209 -3.35026,0 -6.05393,-0.51396 -6.00817,-1.14213 0.0458,-0.62817 16.68202,-34.24052 36.96946,-74.69411 l 36.88626,-73.55198 7.31808,14.73744 c 4.02495,8.10559 7.55338,15.84865 7.84096,17.2068 0.28757,1.35815 5.99475,13.38847 12.6826,26.73405 l 12.15974,24.26469 -31.93023,63.84631 c -17.56162,35.11546 -31.5876,64.18891 -31.16883,64.60768 0.41876,0.41877 15.04066,-27.79069 32.49311,-62.68768 l 31.73172,-63.44906 5.23416,10.81953 5.23415,10.81954 -21.73268,43.49724 c -11.95297,23.92349 -21.39269,43.83723 -20.97715,44.25279 0.41554,0.41553 10.48065,-18.67817 22.36691,-42.43047 l 21.61138,-43.18597 3.17514,6.53999 3.17514,6.53998 -19.4504,38.93642 c -10.69772,21.41504 -19.11073,39.27611 -18.69556,39.69128 0.41516,0.41516 9.44286,-16.61051 20.06155,-37.83483 l 19.30671,-38.58965 5.1611,10.2375 5.1611,10.2375 -16.85412,33.68159 c -9.26976,18.52486 -16.5147,34.02101 -16.09986,34.43584 0.41484,0.41484 3.61746,-4.9702 7.11693,-11.96677 13.37827,-26.74749 24.87462,-47.5053 25.41392,-45.88739 0.30883,0.92647 -5.9884,15.21853 -13.99384,31.76016 -8.00543,16.54162 -14.25224,30.37877 -13.8818,30.74921 0.37045,0.37045 4.56472,-7.10811 9.32061,-16.61899 4.75589,-9.5109 12.11502,-23.74748 16.35362,-31.63686 l 7.70655,-14.34431 3.10597,6.413 3.10599,6.41297 -14.87898,29.80449 c -8.18344,16.39247 -14.54021,30.14325 -14.12615,30.55731 0.41406,0.41406 7.38597,-12.49948 15.49314,-28.69673 l 14.7403,-29.44959 5.16088,10.23707 5.16089,10.23706 -13.8101,27.58788 c -7.59554,15.17333 -13.46753,27.93041 -13.04886,28.34909 0.41867,0.41867 6.85123,-11.40375 14.29458,-26.27205 l 13.53336,-27.03328 114.09488,227.90769 114.095,227.90768 -44.7456,89.06349 c -24.6101,48.985 -45.1685,89.0589 -45.6853,89.0533 -0.5168,-0.01 -52.00951,-102.0842 -114.42819,-226.84116 z M 858.96342,563.29202 c 4.24718,-8.46349 7.45015,-15.66017 7.11771,-15.99262 -0.61269,-0.61269 -16.33494,28.67427 -16.33494,30.42825 0,2.9523 2.29627,-0.64403 9.21723,-14.43563 z m -20.67765,-4.33315 c 3.29301,-6.36798 2.86286,-7.77332 -0.72232,-2.35989 -1.66409,2.5127 -3.03013,5.08249 -3.03565,5.71066 -0.0207,2.36011 1.51104,0.9943 3.75797,-3.35077 z m 10.01681,-20.03016 c 3.41253,-6.78717 5.86195,-12.68296 5.44317,-13.10175 -0.67983,-0.67982 -13.13661,22.69152 -13.13661,24.64685 0,2.67155 2.22186,-0.66267 7.69344,-11.5451 z m -35.01973,-21.33103 c 6.77855,-13.48187 9.36723,-19.62814 8.26695,-19.62814 -0.72803,0 -15.96604,29.76838 -15.96604,31.19061 0,2.66561 2.22673,-0.67849 7.69909,-11.56247 z m -3.18453,-25.62986 c -0.0346,-1.52161 -0.83533,-1.00705 -2.2303,1.4332 -2.84843,4.9828 -2.81487,7.68239 0.0484,3.89675 1.22971,-1.62582 2.21155,-4.02429 2.18187,-5.32995 z m -28.94388,-16.46021 c 0.0351,-1.04695 -1.1354,-1.84944 -2.60114,-1.78332 -1.5439,0.0696 -1.87624,0.43932 -0.79003,0.87879 1.44824,0.58593 1.3616,1.98718 -0.38071,6.15712 -1.24061,2.9692 -2.22693,5.82882 -2.19182,6.3547 0.11043,1.65428 5.89665,-9.60755 5.9637,-11.60729 z m -6.46955,-6.47511 c 0.17567,-2.51101 -0.16697,-4.56414 -0.76142,-4.56246 -0.59446,0.002 -1.22456,2.05749 -1.40024,4.56852 -0.17567,2.51102 0.16697,4.56415 0.76143,4.56247 0.59445,-0.002 1.22455,-2.0575 1.40023,-4.56853 z m -12.99688,-22.64255 c -1.54333,-0.97849 4.98938,-15.28948 27.79188,-60.88278 16.3952,-32.78199 29.77215,-60.121 29.72657,-60.75336 -0.12584,-1.7455 -60.65276,118.87245 -60.74794,121.05837 -0.0456,1.04696 1.11635,1.89306 2.58209,1.88024 2.02681,-0.0178 2.18184,-0.32963 0.6474,-1.30247 z"
     id="path1926" />
  <path
     style="fill:#e9c46a;fill-opacity:1;stroke-width:1.52284"
     d="m 542.89171,571.06937 c 37.2725,-74.54129 67.76819,-135.87378 67.76819,-136.29442 0,-0.42064 -4.11168,-0.7648 -9.13706,-0.7648 -5.02538,0 -9.13705,-0.31938 -9.13705,-0.70975 0,-0.39036 1.15484,-3.13148 2.56631,-6.09137 2.0402,-4.27835 3.44531,-5.38162 6.85396,-5.38162 4.16101,0 6.23271,-3.89045 70.14532,-131.72589 36.22172,-72.44924 66.20215,-131.72468 66.6232,-131.7232 0.42104,0.001 8.58579,15.59159 18.14391,34.64467 9.55812,19.05309 17.95706,34.87183 18.66431,35.15276 0.70726,0.28093 0.89857,1.13753 0.42513,1.90355 -0.47342,0.76603 -0.0209,1.39278 1.00575,1.39278 1.02659,0 1.44043,0.4261 0.91963,0.9469 -1.10021,1.1002 5.71265,15.11908 8.04938,16.56325 0.86715,0.53593 1.18238,1.61234 0.70049,2.39203 -0.48187,0.77969 -0.10996,1.41762 0.82646,1.41762 0.93643,0 1.27907,0.68528 0.76143,1.52284 -0.51765,0.83756 -0.10127,1.52284 0.92535,1.52284 1.0266,0 1.47423,0.39229 0.99478,0.87175 -0.47946,0.47946 1.69117,6.13302 4.82362,12.56345 3.13246,6.43044 6.39993,13.4049 7.26104,15.49881 1.38883,3.3771 -3.52712,13.99839 -43.52324,94.03554 -24.79891,49.62563 -45.52243,90.22842 -46.05225,90.22842 -0.52985,0 -1.821,-2.07055 -2.86924,-4.60121 -1.04823,-2.53066 -2.52193,-4.98193 -3.27489,-5.44728 -0.75295,-0.46535 -29.06709,55.05696 -62.92032,123.38292 l -61.55133,124.22902 h -5.4093 c -2.97512,0 -5.4093,-0.34404 -5.4093,-0.76452 0,-0.42049 33.23604,-67.23381 73.85787,-148.47405 40.62183,-81.24025 73.85787,-147.98743 73.85787,-148.32709 0,-0.33965 -3.34336,-0.855 -7.42969,-1.14523 l -7.42968,-0.52768 -74.80279,149.61929 -74.8028,149.61928 h -10.66246 -10.66246 l 74.62083,-149.2355 c 41.04146,-82.07953 74.62082,-149.57953 74.62082,-150 0,-6.72393 -15.67698,22.96229 -78.80968,149.2355 l -74.99538,150 h -10.66092 c -5.86351,0 -10.66092,-0.34408 -10.66092,-0.76463 0,-0.42053 32.20884,-65.17942 71.57521,-143.90863 69.94677,-139.88727 71.4798,-143.14399 67.38203,-143.14399 -4.03852,0 -6.84702,5.30805 -76.14267,143.90863 L 497.97168,706.59898 H 486.5476 475.12352 Z"
     id="path1928" />
  <path
     style="fill:#e9c46a;fill-opacity:1;stroke-width:1.52284"
     d="M 577.32301,416.87817 C 656.98352,257.53173 722.38572,126.91415 722.66123,126.6169 c 0.95412,-1.02945 16.00975,30.37739 15.19448,31.69652 -0.45036,0.72871 -0.28369,1.55477 0.3704,1.8357 0.65409,0.28093 6.08941,10.10469 12.07847,21.83058 27.25634,53.36471 42.78255,84.56398 46.84548,94.13401 4.05906,9.56094 4.24934,10.81934 2.4179,15.98985 -2.83145,7.99373 -44.63246,93.10715 -67.78895,138.02898 l -19.5887,38.00054 -2.32477,-4.90878 c -1.27861,-2.69984 -3.05062,-4.69713 -3.93779,-4.43843 -0.88717,0.2587 -29.36684,56.11378 -63.28816,124.12241 -40.68093,81.56093 -62.45269,123.65068 -63.95939,123.64807 -1.25634,-0.002 -3.15463,-0.55642 -4.21841,-1.2316 -1.4268,-0.90558 17.32727,-39.83341 71.49609,-148.40445 40.38663,-80.94727 73.06832,-147.53878 72.62598,-147.98112 -0.44234,-0.44234 -3.96202,-1.23706 -7.82151,-1.76607 l -7.01726,-0.96183 -75.09229,150.19386 -75.09229,150.19384 h -9.52137 c -5.23676,0 -9.52137,-0.34404 -9.52137,-0.76452 0,-0.42049 33.23604,-67.23381 73.85786,-148.47405 40.62183,-81.24025 73.85787,-148.39621 73.85787,-149.23548 0,-4.32402 -3.45239,-0.003 -11.25198,14.08319 -4.75358,8.58503 -38.94446,76.0798 -75.97972,149.98841 l -67.33683,134.37928 -5.32994,-0.1686 c -2.93148,-0.0927 -7.24279,-0.60146 -9.58071,-1.13052 l -4.25076,-0.96197 46.52569,-93.65482 c 25.58912,-51.51015 45.66186,-92.52731 44.60609,-91.14925 -1.05579,1.37809 -22.47798,43.98367 -47.60488,94.67909 -39.78737,80.274 -46.12763,92.18871 -49.11168,92.29138 -1.88452,0.0648 -3.42639,-0.22698 -3.42639,-0.64848 0,-0.42147 20.93188,-42.62567 46.51529,-93.78708 25.58342,-51.16142 45.97047,-92.67182 45.30458,-92.24534 -0.66591,0.42649 -22.10726,42.63067 -47.64745,93.7871 l -46.43672,93.01166 h -10.28917 c -5.65905,0 -10.28917,-0.34489 -10.28917,-0.76641 0,-0.42152 20.5972,-41.95631 45.77155,-92.29951 25.17435,-50.34321 45.53938,-91.76528 45.25562,-92.04903 -0.28376,-0.28377 -21.39043,41.25102 -46.9037,92.29951 l -46.38777,92.81544 h -4.95922 c -2.72757,0 -4.95922,-0.34492 -4.95922,-0.76649 0,-0.42158 20.21573,-41.19341 44.92385,-90.60406 24.70812,-49.41066 44.92386,-90.18249 44.92386,-90.60407 0,-0.42157 -1.54645,-0.76649 -3.43655,-0.76649 -3.02126,0 -8.95487,11.04155 -49.10152,91.37056 l -45.66498,91.37055 h -11.81298 -11.81297 z m 2.73226,80.32995 c 0,-0.83756 -2.33198,2.93147 -5.18217,8.37564 -2.8502,5.44416 -5.18217,10.58375 -5.18217,11.42132 0,0.83756 2.33197,-2.93148 5.18217,-8.37564 2.85019,-5.44416 5.18217,-10.58375 5.18217,-11.42132 z m 38.15726,-28.59891 c 11.95066,-23.26746 23.06869,-43.82584 24.70673,-45.68528 l 2.97827,-3.38078 -0.86925,4.07899 c -0.47808,2.24345 -10.46732,23.76771 -22.1983,47.83168 -11.73099,24.06398 -21.10282,43.97892 -20.82632,44.25544 0.72722,0.72722 41.64422,-82.76077 44.33172,-90.45545 2.14908,-6.15316 2.11626,-6.47208 -0.66597,-6.47208 -2.04877,0 -4.78174,3.31122 -9.11255,11.04061 -8.36062,14.92155 -44.1865,85.9877 -44.1101,87.4992 0.0714,1.41403 -1.71193,4.78568 25.76577,-48.71233 z m -14.42071,-17.81736 c 3.77744,-7.52134 6.86808,-14.37413 6.86808,-15.22843 0,-0.8543 -1.54188,-1.47378 -3.4264,-1.37662 -2.54107,0.13097 -2.74393,0.35542 -0.78511,0.86852 2.46971,0.64692 2.4487,1.06939 -0.32341,6.50318 -4.66977,9.15349 -10.59218,22.90851 -9.86357,22.90851 0.36429,0 3.75297,-6.15383 7.53041,-13.67516 z M 600,433.42626 c 0,-0.32115 -1.7132,-0.91139 -3.80711,-1.31167 -2.09391,-0.40028 -3.8071,-0.13751 -3.8071,0.58389 0,0.72142 1.71319,1.31167 3.8071,1.31167 2.09391,0 3.80711,-0.26275 3.80711,-0.58389 z m -1.81695,-10.87772 c -0.46887,-0.46887 -1.32038,0.37631 -1.89225,1.87817 -0.82642,2.17035 -0.65151,2.34526 0.85248,0.85248 1.04075,-1.033 1.50864,-2.26178 1.03977,-2.73065 z m 49.01164,-81.67878 c 20.10891,-39.92012 36.54714,-73.15615 36.52942,-73.85787 -0.0177,-0.70172 -16.4408,31.13591 -36.49567,70.75028 -20.05488,39.61436 -37.85763,73.98411 -39.56166,76.37722 -1.70404,2.3931 -3.08301,4.93056 -3.06438,5.63884 0.10873,4.13347 9.88841,-13.98492 42.59229,-78.90847 z m 73.8713,-145.9459 c 0.51764,-0.83757 0.21545,-1.52284 -0.67154,-1.52284 -0.887,0 -1.61272,0.68527 -1.61272,1.52284 0,0.83756 0.30219,1.52284 0.67154,1.52284 0.36935,0 1.09508,-0.68528 1.61272,-1.52284 z"
     id="path1930" />
  <path
     style="fill:#e9c46a;fill-opacity:1;stroke-width:1.52284"
     d="m 402.11472,705.45685 c 0.0464,-0.62817 68.75332,-138.38407 152.68216,-306.12423 L 707.39479,94.350516 715.26528,110.1759 c 6.13679,12.3394 7.4748,16.25351 6.07418,17.76896 -1.38446,1.49796 -1.37229,1.70485 0.053,0.90239 1.92566,-1.08418 6.07768,6.07978 12.70075,21.91417 1.92681,4.6066 4.67107,10.08883 6.09836,12.18274 5.39758,7.91853 59.28272,116.37547 60.17051,121.10772 0.75442,4.02143 -0.85625,8.78287 -8.55789,25.29866 -11.55355,24.77601 -50.57008,103.10333 -67.27098,135.04925 l -12.19858,23.33379 -3.02412,-4.97277 -3.02412,-4.97276 -4.91531,8.67233 c -2.70341,4.76978 -30.9005,60.75225 -62.66021,124.40547 -38.2323,76.62567 -58.51705,115.72526 -60.02994,115.70982 -1.25677,-0.0122 -3.14773,-0.57101 -4.20214,-1.2404 -1.40423,-0.89146 17.71503,-40.6025 71.46548,-148.43505 40.36043,-80.9699 73.03447,-147.56613 72.60895,-147.99163 -0.42551,-0.42551 -3.93141,-1.20647 -7.79091,-1.73548 l -7.01725,-0.96183 -75.09229,150.19386 -75.09227,150.19384 h -9.52136 c -5.23676,0 -9.52137,-0.33042 -9.52137,-0.73428 0,-0.40386 33.23604,-67.24488 73.85786,-148.5356 40.62183,-81.29071 73.83622,-148.63161 73.80975,-149.64641 -0.2044,-7.8369 -23.30775,36.13857 -106.03785,201.83508 l -48.47138,97.08121 -5.33554,-0.18016 c -2.93454,-0.0991 -7.29726,-0.61307 -9.69492,-1.14213 l -4.35938,-0.96197 44.51534,-89.08629 c 24.48345,-48.99747 45.10207,-90.62818 45.81916,-92.51269 4.54897,-11.95464 -5.15094,6.63749 -44.90384,86.06863 -42.44564,84.81156 -49.69717,98.26711 -51.81991,96.1542 -0.49675,-0.49445 19.44658,-41.76752 44.31852,-91.71792 24.87194,-49.9504 44.89914,-91.14146 44.50487,-91.53573 -0.39425,-0.39424 -21.59132,41.05013 -47.10459,92.09862 l -46.38777,92.81544 h -10.28917 c -5.65905,0 -10.28917,-0.34492 -10.28917,-0.76649 0,-0.42158 20.25457,-41.27106 45.01016,-90.77665 24.75558,-49.50557 44.6749,-90.34539 44.26513,-90.75516 -0.40975,-0.40977 -21.35611,40.43973 -46.54746,90.77665 -25.19134,50.33691 -46.65253,91.51116 -47.69153,91.49834 -6.75597,-0.0834 -5.58911,-2.8516 38.42888,-91.16765 24.30989,-48.77445 44.19979,-89.32641 44.19979,-90.11548 0,-0.78906 -1.3567,-1.43467 -3.01488,-1.43467 -4.17023,0 -6.11452,3.56619 -54.1742,99.36548 l -41.82709,83.37563 H 428.6645 c -14.64872,0 -26.59612,-0.51395 -26.54978,-1.14213 z M 579.64036,496.89924 c -0.95708,-0.95707 -10.12377,17.04436 -10.02232,19.68169 0.0411,1.07085 2.48424,-2.7483 5.42898,-8.48698 2.94475,-5.73868 5.01175,-10.77629 4.59334,-11.19471 z m 28.04601,-6.1632 c 26.30048,-50.655 33.77698,-64.50111 34.45996,-63.81813 0.37538,0.37538 -6.97837,16.68688 -16.34165,36.24778 -20.92054,43.70519 -24.48086,51.55512 -23.38274,51.55512 1.39408,0 43.28877,-86.54847 44.2703,-91.45617 1.27945,-6.3972 -2.40227,-5.81689 -6.87429,1.08353 -3.96425,6.11691 -47.43216,90.80307 -47.43216,92.40949 0,2.8968 2.44399,-1.25971 15.30058,-26.02162 z m -3.89455,-39.94419 c 3.77744,-7.52134 6.86808,-14.37413 6.86808,-15.22843 0,-0.8543 -1.54188,-1.54278 -3.4264,-1.52995 -2.3218,0.0158 -2.80335,0.41876 -1.49375,1.24998 1.46997,0.933 0.46742,4.35336 -4.18782,14.28737 -3.36626,7.1834 -6.12046,13.4737 -6.12046,13.97844 0,2.85559 2.22163,-0.53447 8.36035,-12.75741 z m -5.31466,-17.36551 c 0,-0.32109 -1.37056,-0.94221 -3.04569,-1.38027 -1.67512,-0.43806 -3.04568,-0.17534 -3.04568,0.58381 0,0.75915 1.37056,1.38027 3.04568,1.38027 1.67513,0 3.04569,-0.26272 3.04569,-0.58381 z m 0,-10.25583 c 0,-0.83756 -0.68528,-1.09932 -1.52285,-0.58168 -0.83756,0.51765 -1.52284,1.62644 -1.52284,2.46401 0,0.83756 0.68528,1.09932 1.52284,0.58168 0.83757,-0.51765 1.52285,-1.62644 1.52285,-2.46401 z m 48.76999,-82.81518 c 20.1969,-40.20305 35.71109,-71.85536 34.47599,-70.33849 -1.2351,1.51689 -16.73926,31.15582 -34.45366,65.86433 -17.71439,34.70851 -34.56891,67.28326 -37.45447,72.38834 -5.70471,10.09264 -6.94384,15.07855 -2.23413,8.98937 1.61956,-2.09391 19.46937,-36.7005 39.66627,-76.90355 z"
     id="path1932" />
  <path
     style="fill:#e9c46a;fill-opacity:1;stroke-width:1.52284"
     d="m 415.18631,705.17759 -11.97106,-0.86287 74.78831,-149.64615 c 48.7145,-97.47428 74.8499,-151.36228 74.96497,-154.56853 0.11863,-3.3072 0.42981,-3.92299 0.94815,-1.87669 0.52168,2.05948 25.511,-46.42998 77.17407,-149.74917 l 76.40257,-152.794866 6.40562,13.479156 c 3.5231,7.41354 6.40563,15.05051 6.40563,16.97103 0,1.92053 0.66088,3.08342 1.46863,2.58421 1.51902,-0.93881 6.23694,7.5043 12.32004,22.04771 1.92681,4.6066 4.67107,10.08883 6.09836,12.18274 5.35302,7.85318 59.27898,116.35546 60.15815,121.04182 0.7244,3.86142 -0.74831,8.53465 -7.01279,22.25298 -9.16212,20.06384 -58.35236,118.80466 -71.85953,144.24553 l -9.15088,17.23575 -3.00184,-4.93614 -3.00186,-4.93615 -5.57259,10.06197 c -3.06493,5.53409 -31.26691,61.50308 -62.67108,124.37553 -37.90568,75.88877 -57.86902,114.30569 -59.39086,114.29022 -1.26081,-0.0122 -3.14324,-0.56368 -4.18316,-1.22412 -1.36937,-0.86965 18.31919,-41.82273 71.39524,-148.5053 40.30731,-81.01747 72.96948,-147.62103 72.58262,-148.00791 -0.38688,-0.38688 -3.86118,-1.13622 -7.72067,-1.66523 l -7.01726,-0.96183 -75.09229,150.19386 -75.0923,150.19384 h -9.52136 c -5.23676,0 -9.52137,-0.28956 -9.52137,-0.64349 0,-0.35392 33.23604,-67.28519 73.85786,-148.73613 40.62183,-81.45096 73.8198,-148.8327 73.77326,-149.73722 -0.35713,-6.94239 -18.47832,27.49543 -95.56996,181.62288 l -58.91396,117.78522 -8.87665,-0.77355 c -4.88216,-0.42546 -9.204,-1.1009 -9.60409,-1.50099 -0.4001,-0.4001 19.22335,-40.62438 43.60765,-89.38727 24.3843,-48.7629 43.99626,-88.99867 43.58213,-89.41281 -0.41414,-0.41414 -20.26013,38.22215 -44.10222,85.85839 -41.18056,82.27839 -48.25686,95.37272 -50.39177,93.24752 -0.50612,-0.50382 15.96678,-34.76778 36.60644,-76.14213 39.14257,-78.46537 51.45993,-103.97161 49.64616,-102.80518 -0.59223,0.38088 -21.28787,41.17726 -45.99032,90.65863 l -44.91353,89.96613 h -10.28951 c -5.65923,0 -10.28951,-0.34504 -10.28951,-0.76676 0,-0.42172 19.22669,-39.21533 42.72598,-86.20803 23.49929,-46.99269 42.39867,-85.76857 41.99862,-86.16862 -0.40006,-0.40007 -20.32421,38.39356 -44.27589,86.20801 -23.95168,47.81448 -44.39294,86.92491 -45.42501,86.91209 -6.79197,-0.0844 -5.6776,-2.73902 37.43988,-89.18814 23.77795,-47.67399 43.72178,-88.22117 44.31963,-90.10483 0.88548,-2.78988 0.50903,-3.42483 -2.0305,-3.42483 -4.25315,0 -5.65541,2.56725 -54.27433,99.36548 l -41.87714,83.37563 -14.04681,-0.27925 c -7.72575,-0.1536 -19.43379,-0.66756 -26.01787,-1.14214 z M 609.83927,486.54822 c 23.56652,-45.52787 31.60147,-60.33591 32.33867,-59.5987 0.52627,0.52627 -35.55778,78.28697 -40.19936,86.62916 -0.34952,0.62817 -0.20235,1.14213 0.32705,1.14213 1.10513,0 40.3459,-80.09756 43.43918,-88.66731 2.43402,-6.74329 1.00451,-9.02667 -3.06949,-4.9029 -4.00619,4.05513 -50.28953,92.56792 -50.28953,96.17429 0,2.21959 4.28346,-5.33367 17.45348,-30.77667 z M 575.7123,506.9525 c 2.57959,-5.11014 4.34752,-9.63379 3.92874,-10.05257 -0.68488,-0.68488 -10.09789,16.59659 -10.09789,18.53887 0,2.51639 2.01249,-0.252 6.16915,-8.4863 z m 27.11586,-54.28753 c 8.40238,-16.7853 8.85602,-18.66022 4.50797,-18.6315 -2.37226,0.0157 -2.89589,0.42519 -1.59748,1.24931 1.46948,0.93271 0.46771,4.39442 -4.18782,14.4713 -3.36565,7.28493 -6.11936,13.57553 -6.11936,13.97913 0,2.59083 2.22861,-0.744 7.39669,-11.06824 z m -5.49313,-19.66337 c -1.04696,-0.42245 -2.76016,-0.42245 -3.80711,0 -1.04696,0.42246 -0.19036,0.76811 1.90355,0.76811 2.09391,0 2.95051,-0.34565 1.90356,-0.76811 z m 1.14213,-9.83109 c 0,-0.83756 -0.68528,-1.09932 -1.52285,-0.58168 -0.83756,0.51765 -1.52284,1.62644 -1.52284,2.46401 0,0.83756 0.68528,1.09932 1.52284,0.58168 0.83757,-0.51765 1.52285,-1.62644 1.52285,-2.46401 z m 23.69969,-33.32279 c 22.39406,-42.86244 57.26699,-112.94196 56.55593,-113.65302 -0.34723,-0.34721 -7.69063,13.26159 -16.31868,30.24182 -8.62804,16.98022 -25.17295,49.23114 -36.76646,71.66872 -11.59351,22.43758 -21.07911,41.2485 -21.07911,41.80203 0,2.78075 4.16747,-4.33364 17.60832,-30.05955 z"
     id="path1934" />
  <path
     style="fill:#e9c46a;fill-opacity:1;stroke-width:1.52284"
     d="m 415.35533,705.46704 c -6.49112,-0.28546 -11.80203,-0.83436 -11.80203,-1.2198 0,-0.38543 30.04598,-60.83249 66.76885,-134.32681 36.72287,-73.4943 70.47287,-141.50563 75,-151.13627 4.52713,-9.63062 11.14359,-22.94107 14.70323,-29.57876 6.96643,-12.99032 7.26533,-13.73327 4.94924,-12.30185 -0.83756,0.51765 -1.52284,0.55905 -1.52284,0.092 0,-0.46702 31.9895,-64.83252 71.08778,-143.03444 l 71.08779,-142.18527 7.33861,15.40158 c 4.03623,8.47087 7.33861,16.98612 7.33861,18.92278 0,2.02236 0.666,3.10958 1.56463,2.5542 0.90026,-0.5564 4.49305,5.3866 8.46141,13.99642 3.79324,8.22988 7.51298,15.99133 8.26607,17.24768 3.19317,5.327 38.54721,74.30595 49.56227,96.7005 8.76429,17.81857 11.99924,26.00222 12.03941,30.45686 0.0445,4.93679 -6.38583,19.08026 -33.92583,74.61929 -18.6894,37.69035 -38.46286,76.98584 -43.941,87.3233 l -9.96024,18.79538 -3.01492,-4.95763 -3.01493,-4.95765 -6.87942,12.81201 c -3.78369,7.04659 -31.89745,62.83738 -62.475,123.97951 -30.57757,61.14213 -55.83106,111.42113 -56.11886,111.73112 -0.2878,0.30997 -2.23757,0.1334 -4.33284,-0.39255 l -3.80954,-0.95613 9.65552,-20.16585 c 5.31054,-11.09121 38.23587,-77.60942 73.16742,-147.81826 34.93154,-70.20884 63.27782,-127.87951 62.99174,-128.15703 -0.28608,-0.27754 -3.73948,-0.98381 -7.6742,-1.56949 l -7.15402,-1.06487 -75.07587,150.161 L 553.5605,706.599 h -9.52136 c -5.23676,0 -9.52137,-0.26572 -9.52137,-0.59049 0,-0.32478 33.32913,-67.50326 74.06473,-149.28552 40.73561,-81.78226 73.67847,-149.08128 73.20638,-149.55338 -2.24013,-2.24013 -21.17185,34.04209 -101.27968,194.10019 l -52.84423,105.58448 -8.72429,-0.6032 c -4.79836,-0.33177 -9.1203,-0.9992 -9.60429,-1.4832 -0.484,-0.48401 17.04285,-36.7205 38.94856,-80.52556 21.90571,-43.80506 40.43022,-81.22805 41.16559,-83.16219 4.50764,-11.85602 -4.50542,5.3281 -40.30831,76.85092 -38.34119,76.59355 -45.14114,89.10203 -47.28046,86.97224 -0.51616,-0.51385 15.61361,-34.09253 35.84393,-74.61929 37.66987,-75.46281 47.75467,-96.3919 45.86015,-95.17403 -0.5932,0.38134 -20.26147,39.12236 -43.70726,86.09119 L 497.22987,706.599 h -10.29006 c -5.65953,0 -10.29006,-0.34527 -10.29006,-0.76728 0,-0.42199 17.51357,-35.78913 38.91905,-78.59363 21.40547,-42.80451 38.5764,-78.16902 38.15759,-78.58782 -0.4188,-0.4188 -18.61895,34.94834 -40.44477,78.59363 -21.82582,43.64531 -40.53861,79.34461 -41.58399,79.33179 -6.68685,-0.0821 -5.4471,-3.02883 38.44261,-91.37543 24.29596,-48.90591 44.17448,-89.4649 44.17448,-90.1311 0,-0.6662 -1.24454,-1.21127 -2.76566,-1.21127 -4.06703,0 -9.3857,9.72007 -55.2045,100.88832 l -41.13709,81.85279 -14.02505,-0.30645 c -7.71378,-0.16857 -19.33597,-0.54003 -25.82709,-0.82549 z M 611.3508,483.50254 c 21.71716,-42.12547 30.02203,-57.35813 30.83081,-56.54935 0.542,0.54198 -34.65106,76.52892 -38.81864,83.8151 -0.43333,0.75758 -0.11223,0.95988 0.71344,0.44956 2.09351,-1.29386 43.13171,-86.86381 43.13171,-89.93519 0,-3.28555 -1.96817,-3.16998 -5.10842,0.29997 -2.82111,3.11729 -49.67628,93.0395 -49.69934,95.38058 -0.0263,2.67635 3.83967,-4.14985 18.95044,-33.46067 z m -35.55115,23.07577 c 1.70117,-3.22202 2.74864,-6.2026 2.32775,-6.6235 -0.78326,-0.78326 -8.60309,13.70146 -8.56094,15.85751 0.0303,1.55008 2.36749,-1.91229 6.23319,-9.23401 z m 29.61748,-59.70953 c 6.06382,-13.30621 5.96397,-12.85863 2.86863,-12.85863 -1.30578,0 -1.99908,0.60684 -1.54069,1.34853 0.45839,0.7417 -1.89966,7.26427 -5.24009,14.49462 -3.34043,7.23035 -6.07351,13.62879 -6.07351,14.21874 0,2.34187 5.01938,-6.30551 9.98566,-17.20326 z m -7.88176,-22.8362 c 0.52004,-1.35521 0.26475,-1.96648 -0.59849,-1.43297 -0.82797,0.51171 -1.50541,1.57523 -1.50541,2.36336 0,2.19051 1.09153,1.70781 2.1039,-0.93039 z m 46.61255,-77.36924 c 16.94604,-33.29531 30.48774,-60.86016 30.09267,-61.25525 -0.39509,-0.39507 -8.11963,13.86227 -17.16567,31.68299 -9.04603,17.82071 -24.56062,48.03068 -34.47686,67.13325 -9.91624,19.10258 -18.01651,35.20664 -18.0006,35.7868 0.0804,2.93158 11.60659,-18.44414 39.55046,-73.34779 z m -29.68091,-64.93745 c 1.29936,-2.51269 2.01983,-4.56853 1.60105,-4.56853 -0.41878,0 -1.82453,2.05584 -3.1239,4.56853 -1.29936,2.51269 -2.01984,4.56853 -1.60105,4.56853 0.41878,0 1.82453,-2.05584 3.1239,-4.56853 z"
     id="path1936" />
  <path
     style="fill:#e9c46a;fill-opacity:1;stroke-width:1.52284"
     d="m 922.80111,889.39998 -113.4933,-226.82025 19.54626,-39.0694 c 10.75045,-21.48816 19.2242,-39.39146 18.83054,-39.7851 -0.39364,-0.39364 -9.17077,15.89511 -19.50473,36.19722 -10.33395,20.30211 -19.46429,36.89033 -20.28961,36.86272 -0.82532,-0.0276 -3.49386,-3.73562 -5.93007,-8.24002 l -4.42946,-8.18982 17.82096,-35.57103 c 9.80154,-19.56405 17.50615,-35.88585 17.12136,-36.27062 -0.38479,-0.3848 -8.42091,14.44155 -17.85805,32.94744 -9.43715,18.50589 -17.81623,33.42781 -18.6202,33.15982 -0.80397,-0.26799 -2.44341,-2.94845 -3.64322,-5.95659 l -2.18147,-5.46934 25.30712,-50.59619 c 13.91892,-27.82791 25.02738,-50.87593 24.68548,-51.21783 -0.3419,-0.34189 -12.16095,22.02984 -26.26456,49.71495 -17.67902,34.70356 -26.02493,49.65402 -26.87288,48.1388 -0.8272,-1.47814 7.05055,-18.47975 24.05802,-51.92149 13.90839,-27.34803 24.94947,-50.0622 24.53574,-50.47593 -0.41373,-0.41373 -11.53588,20.69842 -24.71589,46.91589 -13.18,26.21745 -24.48784,48.24132 -25.12853,48.94192 -1.2957,1.41685 -9.12487,-14.09735 -9.12487,-18.08174 0,-1.39124 5.55356,-13.94003 12.34125,-27.88618 14.20651,-29.18902 16.9353,-35.25513 15.85926,-35.25513 -0.42589,0 -7.53648,13.51075 -15.80132,30.02388 l -15.02698,30.02388 -2.49321,-4.82135 c -1.37126,-2.65174 -2.49322,-5.91209 -2.49322,-7.24522 0,-1.33311 6.92272,-16.61461 15.38384,-33.95887 17.25782,-35.37652 20.02174,-41.43349 18.90682,-41.43349 -0.42658,0 -8.91293,16.26337 -18.85855,36.14081 l -18.08296,36.14078 -5.57827,-11.07694 c -3.06804,-6.09233 -5.17227,-11.73385 -4.67607,-12.53674 0.49622,-0.80288 0.1654,-1.45978 -0.73515,-1.45978 -0.90055,0 -2.72117,-2.27279 -4.04583,-5.05062 l -2.40847,-5.05061 12.42224,-24.80796 c 6.83225,-13.64438 12.08021,-25.15001 11.66216,-25.56807 -0.41805,-0.41805 -5.32802,8.35567 -10.91103,19.49716 -5.583,11.14149 -11.22731,21.90003 -12.54289,23.90787 l -2.39199,3.65062 -2.71368,-5.09123 c -1.49252,-2.80017 -2.7424,-6.33091 -2.7775,-7.84608 -0.0352,-1.51517 -0.64358,-2.39654 -1.35216,-1.95862 -0.70858,0.43793 -2.82876,-2.49263 -4.71149,-6.51237 l -3.42317,-7.30861 6.23434,-12.39947 c 3.42887,-6.81972 6.23433,-12.75733 6.23433,-13.1947 0,-0.43738 -2.12915,-0.79523 -4.73146,-0.79523 -3.60132,0 -4.51067,-0.54561 -3.8071,-2.28427 0.5084,-1.25634 1.3403,-3.31218 1.8487,-4.56853 0.73306,-1.81158 -0.38094,-2.28426 -5.38353,-2.28426 -5.76452,0 -6.17209,-0.25374 -4.73145,-2.94557 2.35515,-4.40064 2.09596,-4.66864 -4.51496,-4.66864 -3.35025,0 -6.09137,-0.35786 -6.09137,-0.79523 0,-0.83047 12.15405,-25.43443 13.05019,-26.41803 0.28236,-0.30993 3.00109,-0.0969 6.04163,0.47359 3.98357,0.74733 5.27992,1.6494 4.63952,3.22848 -2.29498,5.65901 -2.41224,7.17955 -0.28643,3.71423 3.50635,-5.71574 2.97631,-7.17528 -3.01381,-8.29903 -4.35682,-0.81734 -5.24027,-1.54243 -4.3812,-3.59588 0.5918,-1.41466 1.84833,-4.62793 2.79225,-7.14062 0.94392,-2.51269 2.40151,-5.33395 3.23907,-6.26948 0.83756,-0.93551 15.90442,-30.56831 33.48191,-65.85066 l 31.95906,-64.14971 20.04301,40.66079 20.043,40.66082 -31.15,62.28556 c -17.13252,34.25707 -30.8074,62.62819 -30.38865,63.04694 0.41877,0.41877 14.7334,-27.17599 31.81031,-61.32169 l 31.04894,-62.08308 4.82494,10.31067 c 2.65372,5.67087 4.82494,10.92429 4.82494,11.67426 0,0.74996 -8.60582,18.56466 -19.12407,39.58818 -10.51824,21.02355 -18.78144,38.56727 -18.36266,38.98606 0.41878,0.41878 9.45895,-16.61626 20.08926,-37.85563 l 19.32784,-38.61704 3.17318,6.53657 3.17318,6.53658 -15.7715,31.53449 c -16.75325,33.49744 -20.42708,41.43297 -19.18176,41.43297 0.42653,0 8.74138,-15.92019 18.47744,-35.37821 l 17.70192,-35.37821 5.16136,10.238 5.16134,10.23798 -14.61399,29.19723 c -14.81758,29.60396 -17.88594,36.31164 -16.61044,36.31164 0.38963,0 3.8799,-6.33884 7.75614,-14.0863 12.86807,-25.71953 22.48057,-42.85206 23.06283,-41.10528 0.31626,0.94879 -4.68,12.5558 -11.1028,25.79336 -13.42156,27.66214 -16.25426,33.96674 -15.26151,33.96674 0.39096,0 6.92006,-12.21738 14.50912,-27.14975 17.93857,-35.29628 17.01309,-34.12118 20.60305,-26.16008 l 2.87175,6.36842 -11.92374,23.85142 c -13.01748,26.03928 -16.52148,33.74989 -15.33729,33.74989 0.42562,0 7.02766,-12.493 14.67122,-27.76224 l 13.89737,-27.76226 5.16114,10.23758 5.16114,10.2376 -12.28836,24.5406 c -6.75861,13.49733 -11.94584,24.88312 -11.52721,25.30177 0.41865,0.41864 6.18276,-10.06506 12.80915,-23.2971 l 12.04797,-24.05825 114.05817,227.98224 114.0582,227.98226 -44.6834,89.06029 c -24.5758,48.9832 -45.1342,89.0551 -45.6853,89.0486 -0.551,-0.01 -52.07387,-102.0808 -114.49519,-226.83192 z m -65.36147,-323.0601 c 3.41252,-6.78717 5.94446,-12.60046 5.62652,-12.9184 -0.60033,-0.60032 -13.31997,22.60191 -13.31997,24.29731 0,2.8452 2.1131,-0.28015 7.69345,-11.37891 z m -18.40177,-9.65125 c -0.0267,-0.88687 -1.05457,-0.28227 -2.28427,1.34355 -1.22971,1.62581 -2.21404,3.68165 -2.18741,4.56853 0.0267,0.88687 1.05457,0.28227 2.28427,-1.34355 1.22971,-1.62581 2.21404,-3.68165 2.18741,-4.56853 z m 8.50265,-16.23555 c 2.99577,-5.94879 5.15521,-11.10762 4.79875,-11.46405 -0.63696,-0.63696 -11.73013,19.5637 -11.73013,21.36056 0,2.72587 2.04589,-0.19523 6.93138,-9.89651 z M 769.02536,528.4467 c 5.86855,-11.71473 10.63412,-22.16524 10.59018,-23.22335 -0.077,-1.85737 -22.52097,41.06623 -22.68286,43.38071 -0.24973,3.57026 2.51443,-1.03731 12.09268,-20.15736 z m 42.71365,-7.76108 c 5.32492,-10.54863 7.79861,-16.62471 6.76821,-16.62471 -0.72956,0 -12.92346,23.67654 -12.92346,25.0931 0,2.50489 2.01626,-0.26907 6.15525,-8.46839 z m -2.6077,-26.11875 c 0.83886,-3.32857 0.79168,-3.34597 -1.33904,-0.49408 -2.44592,3.2738 -2.95358,6.05983 -0.86949,4.77178 0.73646,-0.45516 1.7303,-2.38013 2.20853,-4.2777 z m -27.97687,-19.05926 c 0.0352,-1.04695 -0.81724,-1.90355 -1.8941,-1.90355 -1.07688,0 -2.00196,1.19924 -2.05575,2.66498 -0.0538,1.46573 -0.57735,4.72081 -1.16348,7.2335 -1.06151,4.55068 -1.05373,4.54771 1.99191,-0.76142 1.68168,-2.93148 3.08632,-6.18655 3.12142,-7.23351 z m -18.21028,4.18782 c 0,-0.83756 -0.72572,-1.52284 -1.61272,-1.52284 -0.88699,0 -1.18919,0.68528 -0.67154,1.52284 0.51764,0.83756 1.24337,1.52284 1.61272,1.52284 0.36935,0 0.67154,-0.68528 0.67154,-1.52284 z m -10.81614,-8.75634 c 1.79511,-3.55965 2.92119,-6.47208 2.50241,-6.47208 -0.86564,0 -6.91469,11.49266 -6.91469,13.1373 0,1.66756 0.88209,0.33507 4.41228,-6.66522 z m 22.89184,-4.56853 c 0.0589,-1.04696 -0.57824,-1.90355 -1.4158,-1.90355 -0.83756,0 -1.47467,2.22715 -1.4158,4.94923 0.0897,4.14751 0.31903,4.45587 1.4158,1.90356 0.71983,-1.67513 1.35695,-3.90229 1.4158,-4.94924 z m -20.10234,-4.34645 c -0.50604,-0.50603 -1.81949,-0.56012 -2.91879,-0.12016 -1.21482,0.48613 -0.85398,0.84698 0.92006,0.92004 1.60532,0.0661 2.50475,-0.2938 1.99873,-0.79982 z m -6.33159,-3.53667 c 0,-1.61363 -0.53843,-2.6011 -1.19652,-2.19438 -0.65809,0.4067 -1.19652,1.72696 -1.19652,2.93387 0,1.20692 0.53843,2.19439 1.19652,2.19439 0.65809,0 1.19652,-1.32024 1.19652,-2.93388 z m 13.10209,-12.09749 c -1.54331,-0.97847 5.01027,-15.33126 27.87903,-61.05705 16.44313,-32.87782 29.56516,-60.10933 29.16007,-60.51442 -0.9888,-0.98878 -60.35149,117.60564 -60.35149,120.5698 0,1.28011 1.19924,2.31696 2.66498,2.30414 2.02681,-0.0178 2.18184,-0.32963 0.64741,-1.30247 z M 413.07107,705.47147 c -5.23478,-0.29736 -9.51777,-0.84448 -9.51777,-1.21579 0,-0.37133 29.64036,-60.12924 65.86746,-132.79537 77.25729,-154.96652 96.03639,-193.11194 96.44707,-195.91011 0.63626,-4.33504 43.78271,-90.64102 44.95229,-89.91817 0.6781,0.41908 2.30761,-1.31627 3.62113,-3.85634 1.35806,-2.62619 1.7134,-4.61833 0.82379,-4.61833 -0.86046,0 18.99618,-41.11675 44.12582,-91.37056 25.12965,-50.25381 46.05459,-91.370556 46.49984,-91.370556 1.58858,0 14.41387,28.018046 14.41387,31.488456 0,1.94531 0.70887,3.3656 1.57524,3.15621 1.55987,-0.37699 21.57442,38.00861 58.95615,113.07107 15.05439,30.22916 19.34766,40.1995 19.37838,45.00274 0.0323,5.04125 -6.73662,19.80921 -36.99357,80.71066 -20.36817,40.99722 -40.14099,80.25845 -43.93958,87.24716 l -6.90657,12.70675 -3.03775,-4.99517 -3.03775,-4.99518 -13.93637,26.82068 c -7.665,14.75139 -35.86101,70.72915 -62.6578,124.39503 -41.14913,82.40924 -49.21602,97.57433 -51.90355,97.57433 -4.9547,0 -5.31944,-1.43468 -2.01265,-7.91652 1.68818,-3.30912 2.82078,-6.76251 2.51688,-7.6742 -0.3039,-0.9117 -2.22845,2.21156 -4.2768,6.94055 l -3.72426,8.5982 -7.23504,0.026 -7.23504,0.026 74.56075,-149.11535 c 50.79068,-101.57718 75.42949,-149.34105 77.2858,-149.82335 2.12357,-0.55173 1.96855,-0.74698 -0.70236,-0.88465 -3.0639,-0.15792 -11.38187,15.73322 -78.42281,149.82335 l -74.99537,150 h -9.52136 c -5.23676,-1.1e-4 -9.52137,-0.23022 -9.52137,-0.51149 0,-0.28125 33.27753,-67.51135 73.95007,-149.40018 40.67254,-81.88884 73.61868,-149.2202 73.21363,-149.62523 -0.40504,-0.40505 -3.88361,4.63594 -7.73016,11.2022 -6.60775,11.27977 -94.07179,183.36013 -129.78675,255.34778 l -16.49959,33.25685 -8.72429,-0.61059 c -4.79836,-0.33582 -9.12039,-1.00666 -9.60449,-1.49077 -0.48411,-0.48411 15.19973,-33.03436 34.85297,-72.33388 19.65324,-39.29952 36.78929,-73.98131 38.08009,-77.07063 6.74822,-16.15076 -2.50268,1.40789 -36.17767,68.66693 -35.46576,70.83574 -42.10868,82.98484 -44.22352,80.87948 -0.5127,-0.5104 13.21664,-29.29212 30.50965,-63.95939 33.63355,-67.42515 46.78367,-94.74276 45.0798,-93.64735 -0.58386,0.37537 -18.87356,36.37056 -40.64377,79.98932 l -39.58219,79.30684 h -10.2909 c -5.66,0 -10.2909,-0.34568 -10.2909,-0.76818 0,-0.42251 15.11523,-30.99256 33.5894,-67.93344 18.47418,-36.94088 33.25651,-67.49815 32.84964,-67.90502 -0.40688,-0.40687 -16.21592,30.16317 -35.1312,67.93343 -18.91529,37.77028 -35.2395,68.66272 -36.27603,68.6499 -6.58565,-0.0815 -5.23797,-3.28514 38.4614,-91.42882 24.26944,-48.9526 44.13649,-89.56893 44.14901,-90.2585 0.064,-3.52688 -5.869,0.65562 -10.09796,7.11858 -2.64495,4.04219 -23.76335,44.97903 -46.92976,90.97076 l -42.12075,83.62129 -16.27733,-0.29342 c -8.95254,-0.16137 -20.56033,-0.53672 -25.7951,-0.83409 z M 576.65106,503.04699 c -0.81253,-0.81251 -7.12017,10.52965 -7.09351,12.75528 0.008,0.66154 1.78813,-1.75685 3.956,-5.3742 2.16787,-3.61736 3.57974,-6.93883 3.13751,-7.38108 z m 37.72199,-25.63582 c 19.91505,-38.52355 26.95856,-51.30798 27.80273,-50.46381 0.51283,0.51282 -28.82598,64.42669 -35.74745,77.87498 -0.52252,1.01523 -0.25323,1.01523 0.80787,0 2.17975,-2.08555 37.96471,-76.72773 39.26109,-81.89291 1.36,-5.41868 -1.26556,-5.39768 -5.01507,0.04 -5.65409,8.19993 -47.57889,88.54508 -47.5679,91.1596 0.009,2.19632 4.6137,-6.06745 20.45873,-36.71797 z m -9.88776,-29.34259 c 3.39603,-6.8772 6.17461,-12.85375 6.17461,-13.28121 0,-0.42747 -1.06837,-0.77722 -2.37414,-0.77722 -1.30578,0 -1.99633,0.6113 -1.53457,1.35845 0.46177,0.74716 -1.55362,6.60999 -4.47865,13.02853 -4.97575,10.91857 -6.25857,14.47214 -4.64004,12.85363 0.37299,-0.373 3.45674,-6.30498 6.85279,-13.18218 z m 23.1824,-69.64218 c 8.46044,-16.75127 20.13178,-39.60642 25.93629,-50.7892 5.80452,-11.18279 10.20722,-20.67878 9.78378,-21.10223 -0.42344,-0.42344 -6.21956,10.09666 -12.88029,23.37803 -6.66072,13.28135 -19.72182,38.78744 -29.02467,56.68019 -9.30285,17.89274 -16.89289,32.96889 -16.86674,33.50254 0.11132,2.27395 8.68541,-13.2249 23.05163,-41.66933 z"
     id="path1938" />
  <path
     style="fill:#e9c46a;fill-opacity:1;stroke-width:1.52284"
     d="M 922.76829,889.43915 809.27534,662.63462 827.29536,626.56383 c 9.91101,-19.83893 17.70836,-36.38245 17.32744,-36.76337 -0.38092,-0.38091 -8.46394,14.54407 -17.96226,33.16666 -9.49832,18.62257 -17.95496,33.77729 -18.79252,33.67714 -0.83756,-0.1002 -3.51961,-3.7164 -5.9601,-8.03613 l -4.43726,-7.85406 6.41754,-12.93991 c 3.52964,-7.11695 6.08895,-13.26848 5.68734,-13.67009 -0.40161,-0.40162 -3.34857,4.11973 -6.54881,10.04741 -3.20023,5.9277 -6.49616,10.56443 -7.32428,10.30388 -0.82811,-0.26056 -2.42376,-2.88596 -3.54587,-5.83421 -2.03054,-5.33508 -1.93109,-5.57859 21.00981,-51.44067 12.67752,-25.34412 22.78735,-46.34287 22.46632,-46.66392 -0.32104,-0.32104 -11.12106,19.97909 -24.00003,45.1114 -17.15727,33.48107 -23.76768,45.06726 -24.73083,43.34622 -0.93576,-1.67211 3.78596,-12.25638 16.38737,-36.73421 9.73604,-18.91192 17.35907,-34.72813 16.94006,-35.14713 -0.419,-0.41901 -8.39504,14.49255 -17.72453,33.13678 l -16.96271,33.89862 -2.71032,-4.13164 c -1.49068,-2.27242 -3.59876,-6.82365 -4.68463,-10.11385 -1.72908,-5.23918 -1.63136,-6.74269 0.78672,-12.10505 3.58737,-7.95538 1.89279,-9.67771 -2.01926,-2.05233 l -3.00109,5.84972 -2.74993,-5.76667 c -2.35178,-4.93174 -2.4743,-6.47449 -0.84616,-10.65527 1.04708,-2.68871 2.04362,-5.54707 2.21453,-6.35191 0.1709,-0.80484 0.83304,-2.1754 1.4714,-3.04569 2.75431,-3.75501 22.49401,-45.44037 21.83155,-46.10282 -0.40213,-0.40214 -7.1933,12.17881 -15.09149,27.95767 l -14.36033,28.68883 -5.57744,-11.07532 c -3.0676,-6.09141 -5.17145,-11.7322 -4.67525,-12.53509 0.49621,-0.80288 0.19407,-1.45978 -0.67141,-1.45978 -2.67889,0 -6.46633,-9.0087 -5.31394,-12.63957 0.58484,-1.84265 0.90425,-3.61631 0.70982,-3.94145 -0.19444,-0.32513 0.30574,-1.01041 1.1115,-1.52284 2.045,-1.30053 20.4726,-38.39125 19.53804,-39.3258 -0.4191,-0.4191 -5.19987,8.04812 -10.62393,18.81606 -5.42406,10.76793 -10.81446,20.84196 -11.97865,22.38672 -2.24745,2.98212 -1.94466,3.40753 -7.96102,-11.18429 -0.518,-1.25635 -2.57822,-4.97612 -4.57825,-8.26617 l -3.63642,-5.98191 5.97199,-11.87769 c 3.28459,-6.53273 5.97198,-12.53053 5.97198,-13.32842 0,-0.79791 -1.54188,-1.66972 -3.4264,-1.93736 -2.73816,-0.38887 -3.33834,-1.3278 -2.98804,-4.67444 0.34444,-3.29064 -0.19982,-4.18782 -2.54043,-4.18782 -5.10118,0 -7.49413,-1.58837 -6.73963,-4.47356 0.56539,-2.16204 -0.45279,-2.97407 -4.73682,-3.77776 -3.00135,-0.56306 -5.457,-1.32399 -5.457,-1.69097 0,-0.36697 2.56412,-5.84922 5.69804,-12.18277 5.36522,-10.84292 5.96563,-11.48927 10.27919,-11.0658 3.8685,0.37978 4.52499,1.04198 4.22017,4.25685 -0.34767,3.66676 -0.2775,3.69813 1.90355,0.85107 3.24564,-4.23674 2.79493,-6.93883 -1.16187,-6.96576 -8.72256,-0.0594 -8.76263,0.0451 28.79249,-75.08499 l 36.2449,-72.509 20.09819,40.53659 20.09818,40.53659 -30.4324,60.84995 c -16.73782,33.46746 -30.12156,61.16077 -29.74166,61.54069 0.37991,0.3799 14.3935,-26.56876 31.14133,-59.88593 l 30.45058,-60.57667 4.73257,10.43746 c 2.60292,5.7406 4.73257,11.03391 4.73257,11.76291 0,0.729 -7.57815,16.46977 -16.84033,34.97949 -9.26218,18.50972 -16.49769,33.99668 -16.07891,34.41546 0.41878,0.41878 8.43144,-14.56017 17.80591,-33.28657 l 17.04449,-34.04799 3.17318,6.53738 3.17317,6.53739 -16.40297,32.84815 c -9.02163,18.06647 -16.08385,33.16725 -15.69383,33.55728 0.39003,0.39003 8.05434,-13.8801 17.03179,-31.71138 l 16.32264,-32.42054 5.14502,10.20558 5.145,10.20559 -15.33202,30.63484 c -8.43261,16.84916 -14.99187,30.97499 -14.57613,31.39074 0.41573,0.41574 3.95792,-5.65441 7.87153,-13.48919 12.17316,-24.36993 21.02743,-40.03066 21.62277,-38.24464 0.31412,0.94234 -4.33801,11.86735 -10.33808,24.27779 -12.71692,26.30346 -15.46765,32.46289 -14.49755,32.46289 0.38936,0 6.58702,-11.54741 13.77257,-25.66092 17.10777,-33.60224 16.24475,-32.53101 19.82032,-24.6018 l 2.8724,6.36984 -12.55533,25.1654 c -6.90543,13.84097 -12.21725,25.50349 -11.80404,25.9167 0.41321,0.4132 6.35724,-10.44415 13.20897,-24.12743 l 12.45767,-24.87872 5.16093,10.23716 5.16091,10.23714 -11.52761,23.01683 c -6.34019,12.65923 -11.21277,23.33165 -10.82796,23.71646 0.38482,0.38481 5.83403,-9.43095 12.10936,-21.81279 l 11.4097,-22.51244 113.99697,228.04687 113.9969,228.04689 -44.6613,89.03458 c -24.5638,48.9691 -45.1296,89.0347 -45.7019,89.0347 -0.5723,0 -52.11237,-102.0621 -114.53351,-226.80455 z M 820.15399,595.22564 c 8.96616,-17.878 11.70398,-24.15965 10.52988,-24.15965 -0.72663,0 -20.53159,38.90616 -20.53159,40.33358 0,2.8185 2.52216,-1.26013 10.00171,-16.17393 z m -26.67166,-38.02755 c 5.91885,-11.81518 10.41891,-21.82476 10.00013,-22.24354 -0.67313,-0.67314 -22.26419,40.97244 -22.26419,42.94393 0,2.91813 2.79886,-1.80604 12.26406,-20.70039 z m 63.19525,10.66615 c 2.99576,-5.94878 5.1939,-11.0689 4.88476,-11.37805 -0.59159,-0.59158 -11.81615,19.57935 -11.81615,21.23403 0,2.76787 2.02208,-0.10736 6.93139,-9.85598 z m -17.63972,-11.17561 c 0.0266,-0.78825 -0.95769,-0.10294 -2.1874,1.52285 -1.22971,1.62581 -2.25762,3.60097 -2.28426,4.38923 -0.0266,0.78825 0.95769,0.10294 2.1874,-1.52285 1.22971,-1.62581 2.25763,-3.60097 2.28426,-4.38923 z m 8.5876,-16.61162 c 2.11659,-4.06171 3.56162,-7.67165 3.21119,-8.02209 -0.72803,-0.72803 -10.23971,16.67107 -10.20419,18.66586 0.0317,1.77943 2.38847,-1.80775 6.993,-10.64377 z m -76.84601,-15.23677 c 4.16969,-8.2541 7.23794,-15.35077 6.81834,-15.77038 -0.4196,-0.41959 -4.94165,7.70432 -10.04899,18.05317 -5.10735,10.34882 -8.1756,17.4455 -6.81834,15.77037 1.35726,-1.67513 5.87931,-9.79905 10.04899,-18.05316 z m 59.24507,4.96142 c 1.75058,-3.43141 2.92168,-6.50013 2.60244,-6.81938 -0.31924,-0.31923 -2.07134,2.48829 -3.89355,6.23895 -4.1502,8.54235 -3.0281,9.0468 1.29111,0.58043 z m -21.39508,-3.07785 c 0,-0.83756 -0.68528,-1.09932 -1.52284,-0.58168 -0.83756,0.51765 -1.52284,1.62644 -1.52284,2.46401 0,0.83756 0.68528,1.09932 1.52284,0.58168 0.83756,-0.51765 1.52284,-1.62644 1.52284,-2.46401 z m 3.80176,-7.42413 c 3.13358,-6.05968 5.42829,-12.19308 4.56184,-12.19308 -0.73429,0 -8.3636,14.53983 -8.3636,15.93923 0,2.04332 1.6473,0.42013 3.80176,-3.74615 z m -11.4644,-8.29632 c -0.0266,-0.88688 -1.05456,-0.28228 -2.28427,1.34354 -1.22971,1.62582 -2.21403,3.68165 -2.1874,4.56853 0.0266,0.88687 1.05456,0.28227 2.28427,-1.34355 1.2297,-1.62581 2.21403,-3.68165 2.1874,-4.56852 z m 7.54038,-16.0795 c 1.70961,-3.58975 1.67791,-3.63835 -0.55515,-0.85107 -1.30255,1.62581 -2.36827,3.62455 -2.36827,4.44163 0,1.93483 0.7034,1.0709 2.92342,-3.59056 z M 778.8949,481.2939 c 2.83751,-5.48712 2.94218,-7.68984 0.36543,-7.68984 -1.07686,0 -1.97997,1.19924 -2.00691,2.66498 -0.0269,1.46573 -0.56259,4.20685 -1.19036,6.09137 -1.62691,4.88387 0.089,4.23766 2.83184,-1.06651 z m -15.95074,-1.59847 c 0,-0.83756 -0.68528,-1.52284 -1.52284,-1.52284 -0.83756,0 -1.52284,0.68528 -1.52284,1.52284 0,0.83756 0.68528,1.52284 1.52284,1.52284 0.83756,0 1.52284,-0.68528 1.52284,-1.52284 z m -10.81613,-8.75634 c 1.7951,-3.55965 2.69154,-6.47208 1.99208,-6.47208 -1.40352,0 -6.40437,9.75141 -6.40437,12.4882 0,2.34951 0.61961,1.50466 4.41229,-6.01612 z m 22.89184,-4.56853 c 0.0589,-1.04696 -0.57825,-1.90355 -1.41581,-1.90355 -0.83756,0 -1.47468,2.22715 -1.41581,4.94923 0.0897,4.14751 0.31905,4.45587 1.41581,1.90356 0.71983,-1.67513 1.35694,-3.90229 1.41581,-4.94924 z m -20.10236,-4.34645 c -0.50603,-0.50603 -1.81948,-0.56012 -2.91878,-0.12016 -1.21482,0.48613 -0.85397,0.84698 0.92005,0.92004 1.60533,0.0661 2.50476,-0.29378 1.99873,-0.79982 z m -6.76053,-3.64848 c -0.43806,-1.67512 -1.05918,-3.04568 -1.38028,-3.04568 -0.32109,0 -0.58381,1.37056 -0.58381,3.04568 0,1.67513 0.62113,3.04569 1.38028,3.04569 0.75915,0 1.02186,-1.37056 0.58381,-3.04569 z m 12.55043,-12.10585 c -0.4915,-0.79529 12.18497,-27.59613 28.16994,-59.55745 15.98497,-31.96132 28.73771,-58.43737 28.33942,-58.83566 -0.9713,-0.9713 -58.84114,114.64293 -58.84114,117.55473 0,1.25639 0.72573,2.28434 1.61272,2.28434 0.88699,0 1.21057,-0.65068 0.71906,-1.44596 z"
     id="path1940" />
  <path
     style="fill:#e9c46a;fill-opacity:1;stroke-width:1.52284"
     d="M 922.36869,891.2335 C 859.70953,765.81396 807.09825,660.79949 805.45476,657.86802 c -5.33419,-9.51443 -30.32786,-61.03815 -30.32786,-62.51997 0,-0.79168 -0.6391,-1.43942 -1.42021,-1.43942 -0.78113,0 -1.89078,-1.54188 -2.4659,-3.4264 -1.24975,-4.09507 -33.20149,-68.33966 -37.44266,-75.28506 l -2.96384,-4.85359 6.28098,-12.49226 c 6.34074,-12.61108 6.36564,-15.01688 0.15619,-15.08689 -1.41941,-0.016 -1.78127,-1.16831 -1.15296,-3.67165 0.63443,-2.52776 0.17914,-3.93097 -1.48231,-4.56853 -4.30551,-1.65217 -5.09334,-1.02382 -9.40352,7.5001 l -4.25779,8.42029 -6.80725,-13.894 c -3.74397,-7.64172 -7.3051,-14.20246 -7.9136,-14.57945 -0.60851,-0.37698 -28.87712,54.85268 -62.81912,122.7326 l -61.71274,123.41804 h -92.13012 c -50.67157,0 -92.13012,-0.2725 -92.13012,-0.60553 0,-1.16016 307.33853,-616.288383 308.07219,-616.596625 0.81839,-0.343843 102.80359,203.032585 144.82206,288.800715 23.35276,47.66764 26.52448,55.00891 25.00132,57.86802 -1.62491,3.0501 -1.55399,3.11797 1.0346,0.99027 2.57691,-2.11811 2.72006,-2.00733 1.96799,1.52284 -0.44609,2.09391 -1.26302,5.17767 -1.81541,6.85279 -0.75244,2.28173 -0.55219,2.18623 0.79828,-0.38071 0.99147,-1.88451 2.31946,-3.42639 2.95112,-3.42639 0.63165,0 56.89113,111.3833 125.02112,247.51844 l 123.8726,247.51843 -45.5598,90.55262 c -25.0579,49.804 -45.959,90.5481 -46.4467,90.5425 -0.4878,-0.01 -52.15347,-102.6262 -114.81261,-228.0457 z"
     id="path2737" />
  <path
     style="fill:#e9c46a;fill-opacity:1;stroke-width:1.52284"
     d="M 904.49193,856.9797 C 832.25769,712.70939 763.35294,575.13959 751.37025,551.26904 739.38758,527.39848 729.55163,507.31361 729.5126,506.63601 c -0.039,-0.6776 0.52825,-0.86165 1.26064,-0.40902 1.02791,0.63528 10.85113,-18.40928 10.85113,-21.0374 0,-0.31372 -1.37056,-0.92881 -3.04569,-1.36687 -2.05809,-0.53821 -3.04569,-2.07718 -3.04569,-4.74614 0,-6.68181 -4.82881,-4.83883 -9.60561,3.66609 -2.35161,4.18696 -4.5719,7.61266 -4.93395,7.61266 -0.36206,0 -3.81855,-6.29245 -7.68108,-13.9832 l -7.02279,-13.98321 -10.88589,20.72196 c -5.98725,11.39707 -33.83866,66.68698 -61.89204,122.86646 l -51.00614,102.14449 h -92.52178 c -50.88698,0 -92.51985,-0.51396 -92.5175,-1.14213 0.007,-1.87438 307.36209,-617.131984 308.29142,-617.131984 0.89472,0 108.13255,214.392654 148.33294,296.551084 12.80091,26.16147 22.84458,48.26173 22.31929,49.11167 -0.52531,0.84996 -0.22937,1.54537 0.65762,1.54537 0.887,0 1.61272,1.12369 1.61272,2.49709 0,1.37339 0.93425,3.25791 2.07611,4.18782 1.14186,0.92989 57.69976,112.59395 125.68419,248.14232 l 123.6081,246.4516 -26.5095,52.02556 c -14.5802,28.61407 -35.213,69.32887 -45.8506,90.47737 -10.6376,21.1484 -19.9082,38.4517 -20.6013,38.4517 -0.6932,0 -60.36103,-118.0393 -132.59527,-262.3096 z"
     id="path2739" />
  <path
     style="fill:#f4a261;fill-opacity:1;stroke-width:1.523;stroke:none;stroke-opacity:1;stroke-dasharray:none"
     d="M 1030.5082,1108.2371 C 1027.3258,1102.1712 955.81037,959.89444 871.58507,792.06659 787.35976,624.23875 715.69482,481.82057 712.32964,475.58175 l -6.11852,-11.34334 -3.77221,6.58639 c -2.0747,3.6225 -29.74213,58.49627 -61.48317,121.9417 l -57.71097,115.35533 h -92.89142 c -73.34197,0 -92.87403,-0.40062 -92.8088,-1.90356 0.13875,-3.19652 306.82111,-615.155172 308.28121,-615.149004 1.81599,0.0077 152.22096,300.307204 166.03263,331.501814 3.33321,7.52831 20.67248,42.47754 38.53171,77.66497 17.85922,35.18743 74.68242,148.17597 126.2738,251.08564 l 93.8024,187.10851 -30.9182,61.11484 c -41.0606,81.16266 -61.1365,119.74686 -62.2989,119.73276 -0.5251,-0.01 -3.5586,-4.9747 -6.741,-11.0407 z"
     id="path2741" />
  <g
     inkscape:groupmode="layer"
     id="layer1"
     inkscape:label="Layer 1"
     style="stroke:none;stroke-opacity:1;stroke-width:3;stroke-dasharray:none">
    <path
       style="fill:#000000;fill-opacity:1;stroke-width:3;stroke:none;stroke-opacity:1;stroke-dasharray:none"
       d="m 166.34225,1121.9543 c -1.6655,-2.0542 -91.722961,-181.8459 -91.722961,-183.11674 0,-0.42157 148.705581,-0.76649 330.456851,-0.76649 181.75127,0 330.45685,-0.34432 330.45685,-0.76514 0,-0.42082 -27.66892,-56.09976 -61.48649,-123.73097 l -61.48649,-122.96582 45.74487,-92.51269 c 25.15969,-50.88198 46.14792,-92.51269 46.64054,-92.51269 0.83467,0 309.26778,615.84704 309.26778,617.51374 0,0.4182 -190.42371,0.7604 -423.1638,0.7604 -336.69266,0 -423.47916,-0.389 -424.70715,-1.9036 z"
       id="path4265" />
    <path
       style="fill:#e9c46a;fill-opacity:1;stroke-width:3;stroke:none;stroke-opacity:1;stroke-dasharray:none"
       d="m 169.03553,1122.5639 c -3.25757,-0.8473 -10.33502,-13.9592 -49.03194,-90.838 -24.873666,-49.41626 -45.260723,-90.70433 -45.304573,-91.75128 -0.06328,-1.51087 35.497083,-1.94868 172.382203,-2.1223 94.85406,-0.1203 243.24681,-0.63427 329.76164,-1.14213 L 734.14259,935.7868 672.93401,812.99805 611.72543,690.20928 657.67425,597.62684 c 26.04871,-52.48564 46.50296,-91.971 47.22829,-91.17063 4.29469,4.73893 309.31066,612.06449 309.31066,615.87689 0,1.7062 -838.6255,1.9352 -845.17767,0.2308 z"
       id="path4267" />
  </g>
  <g
     inkscape:groupmode="layer"
     id="layer2"
     inkscape:label="Layer 2"
     style="stroke:none">
    <path
       style="fill:#e9c46a;fill-opacity:1;stroke-width:1.52284;stroke:none"
       d="M 210.76927,663.57868 C 279.68711,525.17132 375.06923,333.97843 422.72953,238.70558 L 509.3846,65.482234 h 92.51583 c 50.8837,0 92.51581,0.46307 92.51581,1.029045 0,0.565975 -74.30669,149.956841 -165.126,331.979691 l -165.126,330.95065 h 123.6344 123.63441 l 46.06012,92.1353 c 25.33307,50.67442 46.06013,92.47645 46.06013,92.8934 0,0.41696 -139.07007,0.75811 -309.0446,0.75811 H 85.464097 Z"
       id="path4270" />
    <path
       style="fill:#e76f51;fill-opacity:1;stroke-width:1.52284;stroke:none;stroke-opacity:1"
       d="M 113.3616,858.50254 C 128.71532,827.3033 223.91783,636.11041 324.92274,433.62944 L 508.56803,65.482234 h 92.92411 c 51.10826,0 92.9241,0.521301 92.9241,1.158447 0,0.637146 -74.01015,149.773239 -164.467,331.413529 -90.45685,181.6403 -164.46701,330.50986 -164.46701,330.82125 0,0.31139 55.55146,0.56616 123.44767,0.56616 h 123.44767 l 45.56697,91.75127 c 25.06184,50.4632 45.57637,92.26523 45.58787,92.8934 0.0122,0.62818 -139.05331,1.14214 -309.03288,1.14214 H 85.445755 Z"
       id="path4272" />
  </g>
  <path
     style="fill:#f4a261;fill-opacity:1;stroke:none;stroke-width:2.31929;stroke-dasharray:none;stroke-opacity:1"
     d="M 1000.8286,1050.3807 C 981.59922,1012.481 912.92403,875.93909 848.21705,746.95431 783.51008,617.96954 725.07937,501.90662 718.37103,489.03672 l -12.19696,-23.39982 -7.78248,14.52629 c -4.28034,7.98945 -31.76331,62.54857 -61.07325,121.24247 l -53.29078,106.71617 h -93.28282 c -82.41271,0 -93.28281,-0.2695 -93.28281,-2.31271 0,-3.51122 306.62709,-614.968357 308.37563,-614.943959 0.83757,0.01169 33.16075,63.347189 71.82931,140.745559 38.66857,77.39837 134.03124,268.18623 211.91707,423.97304 l 141.61056,283.24873 -39.5814,77.66501 c -45.2355,88.7591 -52.6768,102.7918 -54.508,102.7918 -0.7227,0 -17.0471,-31.0088 -36.2765,-68.9086 z"
     id="path4903" />
</svg>
